#!OML:ASF E:\Steps\Project 1\Capture day 1\Session 2\Subject.ASF
:FULLY-SPECIFIED
:DEGREES
316
root 9.73074 15.6166 19.4963 -149.803 -18.5784 170.801
lowerback -13.7667 0.0948744 -7.50239
upperback 3.0074 1.60848 -2.32522
thorax 10.9394 0.318614 2.05703
lowerneck -3.09346 -0.114533 0.890313
upperneck 14.0097 -0.906486 1.58376
head 4.7112 -0.490148 0.281251
rclavicle -3.81667e-014 -3.18055e-014
rhumerus -25.9044 -11.8749 -79.6019
rradius 46.7491
rwrist -10.2256
rhand -10.4501 -53.6974
rfingers 7.12502
rthumb 15.5502 -83.0922
lclavicle -3.81667e-014 -3.18055e-014
lhumerus -22.4978 -7.06076 72.3724
lradius 27.2628
lwrist -2.61854
lhand -22.7059 -15.2064
lfingers 7.12502
lthumb 3.72709 14.7407
rfemur -10.2282 8.83263 -6.39567
rtibia 17.2604
rfoot -20.6265 -27.3224
rtoes -36.4479
lfemur -74.484 1.22044 -2.82824
ltibia 59.1407
lfoot -7.45157 -12.8321
ltoes 4.90259
317
root 9.58967 15.6855 19.4543 -149.719 -18.4571 171.165
lowerback -13.5149 0.125673 -7.75226
upperback 3.04557 1.66533 -2.2771
thorax 10.8227 0.330873 2.2585
lowerneck -2.98161 -0.266963 1.20309
upperneck 14.1448 -1.16589 1.63446
head 4.73443 -0.605093 0.232018
rclavicle 1.98785e-015 1.5704e-014
rhumerus -26.3364 -11.8724 -79.6055
rradius 47.3148
rwrist -10.5794
rhand -9.90358 -53.5073
rfingers 7.12502
rthumb 16.0765 -82.8604
lclavicle 1.98785e-015 1.5704e-014
lhumerus -21.8211 -6.79745 72.2105
lradius 27.1388
lwrist -2.89156
lhand -22.9188 -15.0805
lfingers 7.12502
lthumb 3.52156 14.8702
rfemur -9.8976 9.29561 -6.65375
rtibia 16.3289
rfoot -18.6161 -27.0274
rtoes -36.4612
lfemur -74.3665 1.04877 -3.05515
ltibia 59.1655
lfoot -8.04468 -12.6349
ltoes 2.01748
318
root 9.44124 15.7582 19.4145 -149.56 -18.2968 171.637
lowerback -13.4337 -0.0567415 -7.85105
upperback 3.17729 1.42393 -2.0398
thorax 10.9394 0.197336 2.5183
lowerneck -3.049 -0.248066 1.05699
upperneck 13.969 -1.10035 1.55906
head 4.69149 -0.580007 0.236696
rclavicle 6.19214e-014 1.23246e-014
rhumerus -26.3027 -11.3867 -79.612
rradius 47.6857
rwrist -10.8341
rhand -9.43349 -52.5607
rfingers 7.12502
rthumb 16.5291 -81.8767
lclavicle 6.19214e-014 1.23246e-014
lhumerus -21.129 -5.32239 72.1386
lradius 26.9703
lwrist -3.22722
lhand -23.0953 -15.0811
lfingers 7.12502
lthumb 3.35106 14.8723
rfemur -9.71259 9.67144 -6.93311
rtibia 15.3167
rfoot -16.5734 -26.6219
rtoes -36.0436
lfemur -74.3152 1.00867 -3.25151
ltibia 59.1877
lfoot -8.43738 -12.5382
ltoes 1.382
319
root 9.28916 15.829 19.3834 -149.279 -18.109 172.448
lowerback -13.6825 0.0759122 -7.52837
upperback 3.22013 1.57088 -1.91002
thorax 11.1211 0.280386 2.5167
lowerneck -3.07882 -0.435358 1.35275
upperneck 14.0332 -1.3839 1.53926
head 4.7159 -0.706552 0.167361
rclavicle 3.8763e-015 2.70347e-014
rhumerus -26.3696 -11.9162 -79.5928
rradius 47.7137
rwrist -10.3297
rhand -9.26368 -53.1239
rfingers 7.12502
rthumb 16.6926 -82.4262
lclavicle 3.8763e-015 2.70347e-014
lhumerus -20.342 -4.99314 72.1901
lradius 26.8966
lwrist -2.98494
lhand -23.429 -15.0549
lfingers 7.12502
lthumb 3.0288 14.9034
rfemur -10.0143 10.171 -7.01445
rtibia 14.3278
rfoot -14.1117 -26.4961
rtoes -34.6668
lfemur -74.5379 1.31723 -3.17996
ltibia 59.3649
lfoot -8.63576 -12.4439
ltoes 1.8648
320
root 9.13989 15.9194 19.3427 -149.047 -17.5972 172.638
lowerback -13.6987 0.022226 -8.06534
upperback 3.3182 1.59082 -1.79728
thorax 11.2291 0.242028 2.94548
lowerneck -2.98966 -0.467854 1.14592
upperneck 13.922 -1.43367 1.74481
head 4.6693 -0.730854 0.26311
rclavicle -2.00773e-014 -2.36554e-014
rhumerus -26.3595 -11.8585 -79.5099
rradius 47.7176
rwrist -9.9102
rhand -10.087 -53.0174
rfingers 7.12502
rthumb 15.8999 -82.3847
lclavicle -2.00773e-014 -2.36554e-014
lhumerus -19.8081 -4.03572 72.3172
lradius 26.8752
lwrist -3.08283
lhand -24.0001 -14.8686
lfingers 7.12502
lthumb 2.47727 15.0968
rfemur -9.92972 10.8524 -7.77543
rtibia 12.9946
rfoot -11.2152 -26.7514
rtoes -33.8848
lfemur -74.1101 1.31234 -3.7923
ltibia 59.0651
lfoot -9.17416 -12.1308
ltoes -2.88664
321
root 8.98974 16.0111 19.3039 -148.734 -17.0399 173
lowerback -13.7315 0.0106894 -8.40453
upperback 3.30809 1.63063 -1.70295
thorax 11.2252 0.2347 3.2488
lowerneck -2.94312 -0.469921 1.16296
upperneck 13.9135 -1.45326 1.8293
head 4.65953 -0.737049 0.285471
rclavicle 1.72943e-014 -4.31363e-014
rhumerus -26.4922 -11.6212 -79.4885
rradius 47.8225
rwrist -9.73072
rhand -9.71501 -53.6094
rfingers 7.12502
rthumb 16.2581 -82.9477
lclavicle 1.72943e-014 -4.31363e-014
lhumerus -19.2151 -2.57212 72.3077
lradius 26.7076
lwrist -3.61711
lhand -24.3118 -14.7285
lfingers 7.12502
lthumb 2.1762 15.2401
rfemur -10.0725 11.5672 -8.47976
rtibia 11.6343
rfoot -8.63573 -26.9368
rtoes -32.2013
lfemur -73.8085 1.40209 -4.18805
ltibia 58.7445
lfoot -10.1063 -11.5781
ltoes -9.66653
322
root 8.8375 16.1021 19.2722 -148.535 -16.7184 173.742
lowerback -13.7014 0.0994384 -8.18734
upperback 3.26195 1.69972 -1.57352
thorax 11.1458 0.285324 3.2851
lowerneck -2.97662 -0.520463 1.45573
upperneck 14.1015 -1.56819 1.82998
head 4.7222 -0.782525 0.230569
rclavicle 3.58806e-014 1.61016e-014
rhumerus -26.6728 -11.5891 -79.4626
rradius 47.9564
rwrist -9.5299
rhand -9.86697 -53.1452
rfingers 7.12502
rthumb 16.1118 -82.4955
lclavicle 3.58806e-014 1.61016e-014
lhumerus -18.6396 -2.03489 72.4044
lradius 26.6869
lwrist -3.19578
lhand -24.4773 -14.679
lfingers 7.12502
lthumb 2.01641 15.2912
rfemur -10.2793 12.272 -8.68807
rtibia 10.4608
rfoot -6.684 -27.1729
rtoes -26.9869
lfemur -73.6262 1.52288 -4.11955
ltibia 58.5044
lfoot -10.6241 -11.2179
ltoes -11.1774
323
root 8.68922 16.1979 19.2408 -148.297 -16.203 174.337
lowerback -13.6887 0.181196 -8.16787
upperback 3.24052 1.79817 -1.47732
thorax 11.0994 0.334115 3.40206
lowerneck -3.04575 -0.567069 1.54145
upperneck 14.1859 -1.66187 1.91791
head 4.76052 -0.820152 0.237997
rclavicle 5.8393e-014 -3.13086e-014
rhumerus -26.8892 -11.5925 -79.4461
rradius 48.1928
rwrist -9.19811
rhand -10.0275 -52.8558
rfingers 7.12502
rthumb 15.9571 -82.2185
lclavicle 5.8393e-014 -3.13086e-014
lhumerus -18.3135 -2.28508 72.628
lradius 27.0832
lwrist -1.97987
lhand -24.8164 -14.6064
lfingers 7.12502
lthumb 1.68887 15.3667
rfemur -10.7698 12.9972 -9.13025
rtibia 9.54921
rfoot -4.48175 -27.811
rtoes -22.5609
lfemur -73.2954 1.71714 -4.24336
ltibia 58.1246
lfoot -10.886 -10.8838
ltoes -10.7618
324
root 8.54611 16.2952 19.2101 -148.061 -15.677 174.957
lowerback -13.5884 0.209404 -8.13718
upperback 3.18456 1.80741 -1.32123
thorax 10.9708 0.344438 3.55637
lowerneck -2.96713 -0.521281 1.26544
upperneck 13.9272 -1.58263 2.11918
head 4.67048 -0.78277 0.350989
rclavicle 5.91384e-015 9.54166e-015
rhumerus -27.2067 -11.5026 -79.4393
rradius 48.4531
rwrist -8.77989
rhand -10.0222 -52.4246
rfingers 7.12502
rthumb 15.9623 -81.7869
lclavicle 5.91384e-015 9.54166e-015
lhumerus -18.1717 -2.14898 72.8264
lradius 27.7099
lwrist -1.03548
lhand -24.9582 -14.0482
lfingers 7.12502
lthumb 1.5519 15.9259
rfemur -11.5327 13.9415 -9.50969
rtibia 9.0021
rfoot -2.16604 -28.8247
rtoes -21.9669
lfemur -72.948 1.97213 -4.31207
ltibia 57.7432
lfoot -11.3424 -10.4108
ltoes -13.5777
325
root 8.40879 16.3926 19.1793 -147.903 -15.2158 175.701
lowerback -13.3984 0.210033 -8.05253
upperback 3.08273 1.75481 -1.10597
thorax 10.7443 0.333233 3.72902
lowerneck -2.77933 -0.422721 1.04228
upperneck 13.2604 -1.41096 2.18724
head 4.92654 -0.715784 0.473483
rclavicle 4.63665e-014 1.43622e-014
rhumerus -27.5121 -11.3884 -79.4494
rradius 48.4742
rwrist -8.32108
rhand -9.94175 -51.6532
rfingers 7.12502
rthumb 16.0397 -81.0093
lclavicle 4.63665e-014 1.43622e-014
lhumerus -18.14 -1.82531 72.9563
lradius 28.4762
lwrist -0.142445
lhand -24.6797 -13.3544
lfingers 7.12502
lthumb 1.82092 16.6176
rfemur -12.5435 14.8119 -9.64065
rtibia 9.13067
rfoot -0.397487 -29.7641
rtoes -20.9907
lfemur -72.5644 2.20884 -4.15884
ltibia 57.3342
lfoot -11.9907 -9.6924
ltoes -19.2688
